<svg width="512" height="512" viewBox="0 0 512 512" fill="none" xmlns="http://www.w3.org/2000/svg">
<path d="M87.3264 163.748C134.775 157.627 269.392 153.41 232.511 347.932L274.344 344.528C256.019 224.625 294.348 163.488 414.202 157.627C215.419 47.5495 102.242 161.822 87.3264 163.748Z" fill="#FAC415"/>
<path d="M272.383 317.128C294.185 376.116 359.677 406.264 418.668 384.466C477.658 362.668 507.81 297.178 486.017 238.186C464.223 179.194 398.735 149.037 339.742 170.827C280.752 192.638 250.6 258.128 272.383 317.128Z" fill="white"/>
<circle cx="126.755" cy="277.202" r="113.899" fill="white"/>
<circle cx="125.121" cy="276.087" r="21.0532" fill="#EE6946"/>
<circle cx="378.929" cy="276.087" r="21.044" fill="#00AF87"/>
<path fill-rule="evenodd" clip-rule="evenodd" d="M505.767 151.557C494.586 166.863 486.158 184 480.861 202.199C522.317 257.79 511.349 336.386 456.257 378.503C401.164 420.62 322.444 410.59 279.672 356.005L252.458 396.699L225.504 356.344C182.486 410.157 104.318 419.659 49.6604 377.719C-4.99768 335.779 -16.0528 257.817 24.7909 202.335C19.4653 184.304 11.0795 167.324 0 152.135L79.3113 152.09C131.189 119.81 191.336 103.32 252.423 104.628C312.048 103.565 370.699 119.846 421.244 151.492L505.767 151.557ZM252.956 267.993C257.729 203.48 310.503 153.018 375.165 151.14C336.443 134.397 294.605 126.07 252.423 126.709C210.186 126.299 168.303 134.443 129.296 150.649C194.602 152.038 248.148 202.849 252.956 267.993ZM126.758 378.28C85.8673 378.284 49.0007 353.654 33.3518 315.875C17.7029 278.097 26.3538 234.612 55.2702 205.7C84.1866 176.787 127.673 168.143 165.449 183.797C203.225 199.451 227.85 236.321 227.84 277.212C227.766 333.005 182.551 378.214 126.758 378.28ZM284.364 312.709C303.723 365.07 361.841 391.849 414.222 372.543C466.598 353.21 493.387 295.081 474.06 242.703C454.732 190.326 396.606 163.531 344.226 182.854C291.847 202.176 265.046 260.299 284.364 312.681V312.709Z" fill="black"/>
<path fill-rule="evenodd" clip-rule="evenodd" d="M67.3362 252.092C77.0466 228.719 99.8849 213.501 125.195 213.538C159.682 213.639 187.601 241.595 187.658 276.082C187.662 301.392 172.414 324.21 149.028 333.89C125.642 343.57 98.7276 338.204 80.8423 320.296C62.957 302.387 57.6258 275.466 67.3362 252.092ZM87.2488 291.84C93.6223 307.162 108.601 317.132 125.195 317.1C147.793 317 166.074 298.68 166.125 276.082C166.123 259.488 156.12 244.531 140.785 238.19C125.45 231.849 107.806 235.374 96.0843 247.12C84.3629 258.867 80.8753 276.519 87.2488 291.84Z" fill="black"/>
<path fill-rule="evenodd" clip-rule="evenodd" d="M321.112 252.133C330.804 228.758 353.624 213.525 378.929 213.538C413.444 213.595 441.405 241.567 441.451 276.082C441.455 301.387 426.213 324.201 402.835 333.885C379.456 343.568 352.546 338.213 334.656 320.317C316.766 302.42 311.42 275.509 321.112 252.133ZM341.03 291.794C347.383 307.118 362.341 317.105 378.929 317.1C401.562 317.059 419.897 298.715 419.926 276.082C419.923 259.494 409.928 244.541 394.601 238.196C379.274 231.851 361.635 235.364 349.908 247.097C338.182 258.829 334.678 276.471 341.03 291.794Z" fill="black"/>
</svg>
